<?xml version="1.0" standalone="no"?>
<!DOCTYPE svg PUBLIC "-//W3C//DTD SVG 20010904//EN"
 "http://www.w3.org/TR/2001/REC-SVG-20010904/DTD/svg10.dtd">
<svg version="1.0" xmlns="http://www.w3.org/2000/svg"
 width="309.000000pt" height="400.000000pt" viewBox="0 0 309.000000 400.000000"
 preserveAspectRatio="xMidYMid meet">
<metadata>
Created by potrace 1.16, written by Peter Selinger 2001-2019
</metadata>
<g transform="translate(0.000000,400.000000) scale(0.100000,-0.100000)"
fill="#000000" stroke="none">
<path d="M1390 3773 c-105 -20 -200 -51 -285 -93 -266 -129 -459 -362 -540
-652 -14 -48 -20 -58 -48 -67 -48 -17 -76 -50 -93 -107 -26 -90 13 -195 79
-212 l32 -8 5 -566 c4 -482 7 -568 20 -583 34 -41 67 -45 365 -45 l285 0 0 29
c0 16 3 42 6 59 6 29 2 32 -73 81 -181 116 -307 295 -348 496 -9 44 -17 80
-18 80 -119 62 -137 95 -137 251 0 117 9 165 37 196 18 20 18 20 23 -4 5 -20
13 -23 60 -26 l55 -3 -3 -77 c-5 -105 22 -177 92 -248 126 -126 329 -127 457
-3 71 69 93 122 96 237 3 106 16 135 69 152 27 9 42 9 64 0 48 -20 63 -54 66
-152 3 -104 23 -155 85 -223 24 -26 66 -59 94 -73 44 -24 62 -27 145 -27 83 0
101 3 145 27 63 33 129 103 156 166 16 35 21 68 21 133 l0 87 61 5 c34 2 66 0
72 -5 12 -10 14 -250 2 -290 -11 -40 -63 -95 -100 -107 -31 -11 -33 -14 -44
-86 -32 -199 -177 -406 -358 -512 l-65 -38 0 -62 0 -63 128 0 c70 0 153 4 186
10 142 23 260 113 324 247 l37 78 0 570 c0 519 -2 577 -19 650 -83 362 -351
644 -711 751 -78 23 -111 27 -245 30 -85 1 -166 0 -180 -3z m540 -768 c27 -38
71 -95 98 -125 l50 -56 -127 4 c-153 4 -205 -5 -209 -36 -3 -17 2 -22 19 -22
22 0 21 -2 -13 -37 -20 -21 -41 -49 -48 -62 l-12 -23 -26 25 c-69 63 -143 65
-210 4 l-23 -21 -27 34 c-15 19 -37 43 -49 53 -18 16 -20 23 -10 38 6 10 8 21
5 24 -12 12 -82 25 -137 25 l-54 0 89 56 c105 66 205 141 292 219 34 31 62 54
62 51 0 -15 -56 -116 -102 -184 l-49 -74 63 34 c89 47 195 155 242 247 l39 74
44 -89 c25 -48 67 -120 93 -159z m-672 -261 c116 -58 174 -192 137 -319 -31
-108 -147 -195 -260 -195 -109 0 -225 85 -260 189 -27 83 -10 179 47 255 12
16 17 17 35 5 19 -11 24 -9 52 19 35 34 119 71 167 71 16 1 53 -11 82 -25z
m734 6 c28 -11 66 -34 84 -51 40 -39 70 -34 59 9 l-6 27 36 -35 c50 -48 76
-102 82 -172 16 -166 -103 -293 -272 -293 -58 0 -79 5 -123 30 -99 54 -148
142 -140 253 8 105 61 185 153 231 50 25 63 25 127 1z"/>
<path d="M1063 2560 c-32 -19 -70 -66 -61 -76 3 -3 21 4 39 15 19 11 51 23 71
26 l36 7 -5 -41 c-5 -34 -2 -46 17 -66 41 -44 109 -30 129 26 14 41 -1 75 -48
106 -45 30 -132 32 -178 3z"/>
<path d="M1853 2560 c-32 -19 -70 -66 -61 -76 3 -3 21 4 39 15 19 11 51 23 71
26 l36 7 -5 -41 c-5 -34 -2 -46 17 -66 40 -43 107 -30 130 24 15 38 -2 76 -49
108 -45 30 -132 32 -178 3z"/>
<path d="M1303 2023 c-21 -8 -15 -55 13 -111 103 -206 408 -177 475 46 11 37
10 45 -4 59 -15 15 -17 15 -23 -3 -19 -53 -25 -54 -214 -54 -188 0 -195 2
-213 53 -7 17 -12 19 -34 10z"/>
</g>
</svg>
